<?xml version="1.0" encoding="UTF-8" standalone="no"?>
<!DOCTYPE svg PUBLIC "-//W3C//DTD SVG 1.1//EN" "http://www.w3.org/Graphics/SVG/1.1/DTD/svg11.dtd">
<svg version="1.1" xmlns="http://www.w3.org/2000/svg" xmlns:xlink="http://www.w3.org/1999/xlink" preserveAspectRatio="xMidYMid meet" viewBox="0 0 99 76" width="99" height="76"><defs><path d="M31.92 29.35C28.2 35.45 27.8 36.91 28.2 45.55C28.23 46.18 28.36 49.37 28.6 55.11L38.29 55.5L47.85 55.9L47.85 45.15L47.85 34.52C45.38 34.52 44.01 34.52 43.74 34.52C39.75 34.52 39.62 34.39 40.42 29.74C40.95 27.22 41.74 24.17 42.14 23.1C42.81 21.25 42.28 21.11 38.29 22.18C37.1 22.44 34.18 25.76 31.92 29.35Z" id="b1HFOguHAG"></path><path d="M52.77 30.14L52.63 42.62L52.5 55.11L62.19 55.5L71.75 55.9L71.75 45.15L71.75 34.52C68.97 34.52 67.42 34.52 67.11 34.52C61.93 34.52 61.13 32.4 64.45 26.56C65.51 24.7 66.31 22.84 66.44 22.18C66.44 19.79 62.06 21.64 57.55 25.63C56.91 26.23 55.32 27.73 52.77 30.14Z" id="ctICFtMBp"></path></defs><g><g><g><use xlink:href="#b1HFOguHAG" opacity="1" fill="#ff0000" fill-opacity="1"></use><g><use xlink:href="#b1HFOguHAG" opacity="1" fill-opacity="0" stroke="#000000" stroke-width="0" stroke-opacity="0"></use></g></g><g><use xlink:href="#ctICFtMBp" opacity="1" fill="#ff0000" fill-opacity="1"></use><g><use xlink:href="#ctICFtMBp" opacity="1" fill-opacity="0" stroke="#000000" stroke-width="0" stroke-opacity="0"></use></g></g></g></g></svg>