<?xml version="1.0"?>
<svg xmlns="http://www.w3.org/2000/svg" xmlns:xlink="http://www.w3.org/1999/xlink" version="1.1" id="Capa_1" x="0px" y="0px" width="512px" height="512px" viewBox="0 0 45.82 45.82" style="enable-background:new 0 0 45.82 45.82;" xml:space="preserve" class=""><g><g>
	<g>
		<g>
			<path d="M41.001,41.958H4.818C2.116,41.958,0,40.236,0,38.036V13.033c0-2.2,2.117-3.922,4.818-3.922h7.75l0.785-3.728     c0.187-0.887,0.968-1.521,1.875-1.521h15.364c0.906,0,1.688,0.635,1.875,1.521l0.785,3.728h7.75c2.702,0,4.818,1.722,4.818,3.922     v25.002C45.818,40.236,43.702,41.958,41.001,41.958z M3.831,37.863c0.138,0.104,0.48,0.265,0.987,0.265H41     c0.508,0,0.85-0.162,0.988-0.265V13.207c-0.139-0.104-0.48-0.265-0.988-0.265h-9.305c-0.905,0-1.688-0.635-1.875-1.521     l-0.784-3.727H16.782l-0.785,3.727c-0.186,0.887-0.968,1.521-1.874,1.521H4.819c-0.507,0-0.849,0.161-0.987,0.265L3.831,37.863     L3.831,37.863z" data-original="#000000" class="active-path" data-old_color="#c00000" fill="#c00000"/>
		</g>
		<g>
			<path d="M22.91,34.657c-5.106,0-9.26-4.154-9.26-9.26c0-5.104,4.154-9.258,9.26-9.258c5.105,0,9.259,4.154,9.259,9.258     C32.168,30.503,28.016,34.657,22.91,34.657z M22.91,19.969c-2.994,0-5.429,2.436-5.429,5.428s2.435,5.428,5.429,5.428     c2.992,0,5.428-2.436,5.428-5.428S25.902,19.969,22.91,19.969z" data-original="#000000" class="active-path" data-old_color="#c00000" fill="#c00000"/>
		</g>
	</g>
</g></g> </svg>
